<svg width="22" height="22" viewBox="0 0 22 22" fill="none" xmlns="http://www.w3.org/2000/svg">
<path d="M0 4.73118C0 2.11822 2.11822 0 4.73118 0H17.2688C19.8818 0 22 2.11822 22 4.73118V17.2688C22 19.8818 19.8818 22 17.2688 22H4.73118C2.11822 22 0 19.8818 0 17.2688V4.73118Z" fill="url(#paint0_linear_255_610)"/>
<path d="M11 3.78495C11 3.78495 9.52151 9.87634 8.93011 12.1828C8.33871 14.4892 6.56452 17.0323 6.56452 17.0323H2.12903C4.55062 15.0286 7.16779 10.0766 11 3.78495Z" fill="white"/>
<path d="M11 3.78495C11.173 9.73695 11.3321 13.3534 11 17.0323H19.871C16.3403 14.1768 14.4337 10.0273 11 3.78495Z" fill="white"/>
<path d="M5.7957 14.4892C6.74094 15.4396 6.74076 16.7957 6.56452 17.0323C8.77198 14.1357 9.61487 10.6207 11 3.78495C8.75391 9.74496 7.58099 12.5408 5.7957 14.4892Z" fill="#EDF5F4"/>
<defs>
<linearGradient id="paint0_linear_255_610" x1="8.13513" y1="0.599319" x2="11.311" y2="22.8981" gradientUnits="userSpaceOnUse">
<stop stop-color="#13777D"/>
<stop offset="1" stop-color="#284B63"/>
</linearGradient>
</defs>
</svg>
